<svg fill="none" height="35" viewBox="0 0 53 35" width="53" xmlns="http://www.w3.org/2000/svg"><path d="m51.3238 15.8283h-47.63226c-.64202 0-1.28963-.0056-1.93165 0h-.08374c-.876496 0-1.7139133.769-1.67483377 1.6717.03907947.9083.73692777 1.6717 1.67483377 1.6717h47.63235c.642 0 1.2896.0056 1.9316 0h.0837c.8765 0 1.714-.769 1.6749-1.6717-.0447-.9083-.7369-1.6717-1.6749-1.6717zm0-15.82582335h-47.63226c-.64202 0-1.28963-.00557246-1.93165 0h-.08374c-.876496 0-1.7139133.76899935-1.67483377 1.67173335.03907947.90832.73692777 1.67174 1.67483377 1.67174h47.63235c.642 0 1.2896.00558 1.9316 0h.0837c.8765 0 1.714-.769 1.6749-1.67174-.0447-.908306-.7369-1.67173335-1.6749-1.67173335zm0 31.65152335h-47.63226c-.64202 0-1.28963-.0055-1.93165 0h-.08374c-.876496 0-1.7139133.769-1.67483377 1.6718.03907947.9083.73692777 1.6717 1.67483377 1.6717h47.63235c.642 0 1.2896.0056 1.9316 0h.0837c.8765 0 1.714-.769 1.6749-1.6717-.0447-.9083-.7369-1.6718-1.6749-1.6718z" fill="#fff"/></svg>