<svg width="50" height="46" fill="none" xmlns="http://www.w3.org/2000/svg"><path fill-rule="evenodd" clip-rule="evenodd" d="M0 2.556C0 1.144 1.12 0 2.5 0h5c1.164 0 2.174.821 2.436 1.98l7.053 31.242h21.059l6.25-25.555H25c-1.38 0-2.5-1.145-2.5-2.556s1.12-2.555 2.5-2.555h22.5c.77 0 1.497.362 1.97.982a2.6 2.6 0 01.455 2.193l-7.5 30.666c-.278 1.138-1.278 1.936-2.425 1.936H15c-1.164 0-2.174-.821-2.436-1.98L5.511 5.11H2.5C1.12 5.111 0 3.967 0 2.556zM20 5.11c0 1.411-1.12 2.556-2.5 2.556S15 6.522 15 5.11s1.12-2.555 2.5-2.555S20 3.7 20 5.11zm10 10.222c0-1.411-1.12-2.555-2.5-2.555S25 13.922 25 15.333v4.053l-.732-.749a2.462 2.462 0 00-3.536 0 2.596 2.596 0 000 3.614l5 5.112c.977.997 2.56.997 3.536 0l5-5.111a2.596 2.596 0 000-3.615 2.462 2.462 0 00-3.536 0l-.732.749v-4.053zM17.5 46c1.38 0 2.5-1.144 2.5-2.556 0-1.411-1.12-2.555-2.5-2.555S15 42.033 15 43.444C15 44.856 16.12 46 17.5 46zM40 43.444C40 44.856 38.88 46 37.5 46S35 44.856 35 43.444c0-1.411 1.12-2.555 2.5-2.555s2.5 1.144 2.5 2.555z" fill="#fff"/></svg>