<svg width="40" height="50" fill="none" xmlns="http://www.w3.org/2000/svg"><path d="M27.5 15h11L25 1.5v11c0 1.5 1 2.5 2.5 2.5zm0 5c-4.25 0-7.5-3.25-7.5-7.5V0H7.5C3.25 0 0 3.25 0 7.5v35C0 46.75 3.25 50 7.5 50h25c4.25 0 7.5-3.25 7.5-7.5V20H27.5zm-15-5H15c1.5 0 2.5 1 2.5 2.5S16.5 20 15 20h-2.5C11 20 10 19 10 17.5s1-2.5 2.5-2.5zm15 25h-15C11 40 10 39 10 37.5s1-2.5 2.5-2.5h15c1.5 0 2.5 1 2.5 2.5S29 40 27.5 40zm0-10h-15C11 30 10 29 10 27.5s1-2.5 2.5-2.5h15c1.5 0 2.5 1 2.5 2.5S29 30 27.5 30z" fill="#fff"/></svg>