<svg width="56" height="57" fill="none" xmlns="http://www.w3.org/2000/svg"><path d="M28.517 13.22c-8.57 0-15.497 6.927-15.497 15.497s6.927 15.498 15.497 15.498 15.498-6.927 15.498-15.498c0-8.57-6.927-15.497-15.498-15.497zm3.992 21.015c-.822.705-1.878 1.057-3.17 1.174v1.41h-1.291v-1.41a9.385 9.385 0 01-4.814-2.113l1.409-1.761c1.056.94 2.23 1.526 3.405 1.761V29.54c-1.527-.352-2.583-.822-3.288-1.409-.587-.587-.939-1.526-.939-2.583 0-1.174.352-1.996 1.174-2.817.822-.705 1.761-1.057 3.053-1.175v-.939h1.291v1.057a8.04 8.04 0 014.11 1.526l-1.292 1.761c-.822-.587-1.761-.939-2.818-1.174v3.64c1.526.352 2.583.822 3.287 1.409.705.587 1.057 1.526 1.057 2.583.117 1.174-.352 2.113-1.174 2.817z" fill="#fff"/><path d="M26.17 25.313c0 .47.116.822.351 1.056.235.235.705.47 1.527.705v-3.405c-.587 0-1.057.235-1.41.47-.234.352-.469.704-.469 1.174zm3.169 4.461v3.522c.587-.117 1.174-.235 1.526-.587.353-.352.587-.704.587-1.174s-.117-.822-.47-1.057c-.351-.235-.821-.47-1.643-.704zM5.506 27.308c.352-5.753 2.817-11.153 6.927-15.145 8.922-8.688 23.129-8.688 32.051-.117l-2.348-.353c-1.291-.117-2.348.705-2.583 1.879-.117 1.174.705 2.348 1.879 2.583l7.983 1.056h.353c.47 0 .939-.117 1.408-.47.47-.351.822-.938.822-1.525l1.057-7.984c.117-1.291-.704-2.348-1.879-2.583-1.29-.117-2.348.705-2.582 1.879l-.353 2.7C43.075 3.945 36.266 1.01 28.87.892c-7.28.118-14.324 2.935-19.607 8.101-4.931 4.814-7.866 11.271-8.336 18.08-.118 1.292.822 2.349 2.113 2.349h.118c1.291 0 2.23-.94 2.348-2.114zm48.488.705c-1.174-.118-2.348.822-2.348 2.113-.352 5.753-2.818 11.154-6.927 15.146-9.04 8.688-23.246 8.688-32.169 0l2.583.234a2.25 2.25 0 002.466-1.996 2.25 2.25 0 00-1.996-2.465l-8.219-.822c-.587-.117-1.174.117-1.643.47-.47.352-.705.939-.822 1.526l-.822 7.983a2.25 2.25 0 001.996 2.466h.235c1.174 0 2.113-.822 2.23-1.996l.235-2.583c5.4 5.518 12.563 8.219 19.607 8.219a27.775 27.775 0 0019.254-7.75c4.931-4.813 7.866-11.27 8.336-18.08a2.251 2.251 0 00-1.996-2.465z" fill="#fff"/></svg>