<svg fill="none" height="35" width="53" xmlns="http://www.w3.org/2000/svg"><path d="M51.324 15.828H3.692c-.642 0-1.29-.005-1.932 0h-.084c-.876 0-1.714.77-1.675 1.672.04.908.737 1.672 1.675 1.672H49.31c.641 0 1.29.005 1.931 0h.084c.876 0 1.714-.77 1.675-1.672-.045-.908-.737-1.672-1.675-1.672zm0-15.826H3.692c-.642 0-1.29-.005-1.932 0h-.084C.8.002-.038.772.001 1.674c.04.909.737 1.672 1.675 1.672H49.31c.641 0 1.29.006 1.931 0h.084c.876 0 1.714-.769 1.675-1.672-.045-.908-.737-1.672-1.675-1.672zm0 31.652H3.692c-.642 0-1.29-.005-1.932 0h-.084c-.876 0-1.714.769-1.675 1.672.04.908.737 1.672 1.675 1.672H49.31c.641 0 1.29.005 1.931 0h.084c.876 0 1.714-.77 1.675-1.672-.045-.908-.737-1.672-1.675-1.672z" fill="#fff"/></svg>