<svg width="50" height="58" fill="none" xmlns="http://www.w3.org/2000/svg"><path d="M9.42 39.96H-.009l12.041 12.124v-9.466a2.658 2.658 0 00-2.612-2.659z" fill="#fff"/><path d="M36.439.298H2.603A2.65 2.65 0 00-.009 2.956v34.521h9.43a5.159 5.159 0 015.15 5.15v9.457h11.54a13.606 13.606 0 01-1-5.15 13.894 13.894 0 0113.893-13.829h.13V2.956A2.657 2.657 0 0036.44.298zM33.225 29.52H5.817a1.25 1.25 0 110-2.492h27.417a1.251 1.251 0 110 2.492h-.01zm0-7.475H5.817a1.25 1.25 0 110-2.492h27.417a1.25 1.25 0 110 2.492h-.01zm0-7.484H5.817a1.25 1.25 0 110-2.492h27.417a1.251 1.251 0 110 2.492h-.01zm0-7.475H5.817a1.25 1.25 0 110-2.492h27.417a1.25 1.25 0 110 2.492h-.01z" fill="#fff"/><path d="M39.106 35.884h-.13a11.115 11.115 0 00-11.114 11.05 10.856 10.856 0 001.287 5.15 11.06 11.06 0 109.957-16.2zm-3.964 16.672l-3.659-3.603a1.494 1.494 0 012.112-2.111l2.557 2.556 8.123-8.105a1.5 1.5 0 012.12 0 1.5 1.5 0 010 2.112l-9.169 9.17a1.5 1.5 0 01-2.093-.01l.009-.008z" fill="#fff"/></svg>